<svg width="1366" height="667" viewBox="0 0 1366 667" fill="none" xmlns="http://www.w3.org/2000/svg">
<path d="M133 97C34.483 97.0001 -193.995 185.333 -244.495 211V395C-270.328 482.5 -322.395 659.4 -323.995 667C-325.595 674.6 43.3385 781.167 228.005 833.5L1476.01 737C1530.84 596.5 1612.81 452.5 1578.01 364.5C1534.51 254.5 1389.51 138 1210.5 138C1001.49 138 914.505 253 680.005 245.5C445.505 238 344.5 96.9998 133 97Z" fill="#F1F1F1"/>
<path d="M200 606C58 606 -188.035 529.239 -214 504L-400.657 343.322L-624 727.381L1387.65 1313.13L1770.27 763.4C1750.02 705.337 1641.83 600.785 1404.15 530.319C1099 439.854 845.502 473.651 655.769 514.546C482 552 381.525 606 200 606Z" fill="url(#paint0_linear)"/>
<defs>
<linearGradient id="paint0_linear" x1="647.92" y1="339.734" x2="1100.35" y2="1509.21" gradientUnits="userSpaceOnUse">
<stop stop-color="#531F8F"/>
<stop offset="1" stop-color="#F0407B"/>
</linearGradient>
</defs>
</svg>
