<svg width="1366" height="613" viewBox="0 0 1366 613" fill="none" xmlns="http://www.w3.org/2000/svg">
<rect width="1366" height="613" fill="#531F8F"/>
<mask id="mask0" mask-type="alpha" maskUnits="userSpaceOnUse" x="0" y="0" width="1366" height="613">
<rect width="1366" height="613" fill="#C4C4C4"/>
</mask>
<g mask="url(#mask0)">
<mask id="mask1" mask-type="alpha" maskUnits="userSpaceOnUse" x="0" y="0" width="1366" height="812">
<rect width="1366" height="812" fill="#F7F7F7"/>
</mask>
<g mask="url(#mask1)">
<path d="M-57.5 570.005C-201.836 554.006 -252.651 565.349 -284.919 548.919L-482.436 599.382L-298 878L1487.2 878L1606.5 631.504C1569.98 582.029 1427.5 458.504 1183 403.003C954 351.021 602.456 408.032 437.5 506.505C272.544 604.977 122.92 590.003 -57.5 570.005Z" fill="white"/>
<path d="M654.545 239.064C694.963 121.513 613.391 6.5157 567.553 -36.2892C372.639 -236.86 7.67634 -327.88 -93.2574 -97.4222C-247.235 254.149 -67.8046 417.002 -25.4739 448.946C16.8568 480.89 142.305 519.489 273.113 488.673C403.92 457.857 604.021 386.003 654.545 239.064Z" fill="url(#paint0_linear)"/>
<path d="M1470.92 188.985C1498.47 113.844 1449.59 42.646 1421.7 16.4399C1303.48 -106.734 1076.69 -157.353 1009.09 -9.62425C905.964 215.741 1015.21 315.347 1041.11 334.748C1067 354.15 1144.82 376.176 1227.31 354.183C1309.81 332.19 1436.48 282.912 1470.92 188.985Z" fill="url(#paint1_linear)"/>
</g>
</g>
<defs>
<linearGradient id="paint0_linear" x1="706.5" y1="287.996" x2="-147.82" y2="-303.814" gradientUnits="userSpaceOnUse">
<stop stop-color="#531F8F"/>
<stop offset="1" stop-color="#F0407B"/>
</linearGradient>
<linearGradient id="paint1_linear" x1="1652.97" y1="270.622" x2="872.608" y2="-106.492" gradientUnits="userSpaceOnUse">
<stop stop-color="#531F8F" stop-opacity="0"/>
<stop offset="1" stop-color="#AC365E"/>
</linearGradient>
</defs>
</svg>
