<svg width="1366" height="373" viewBox="0 0 1366 373" fill="none" xmlns="http://www.w3.org/2000/svg">
<mask id="mask0" mask-type="alpha" maskUnits="userSpaceOnUse" x="0" y="0" width="1366" height="373">
<rect width="1366" height="373" fill="#C4C4C4"/>
</mask>
<g mask="url(#mask0)">
<path d="M1681.94 18.8721C1654.92 32.6274 1718.16 171.055 1654.28 218.164L1648.74 221.825C1636.88 228.833 1621.3 233.127 1601 233.7C1043 249.435 848 134.27 566.5 96.6991C315.501 63.1992 -25.0001 87.701 -219.679 302.202C-242.524 327.373 -260.878 345.773 -275.449 358.914L-277.5 358.701C-309.016 316.01 -367.145 441.611 -275.449 358.914L-118.5 375.2L1416.69 375.2L1648.74 221.825C1650.69 220.676 1652.53 219.455 1654.28 218.164L1879.45 69.3353L1681.94 18.8721Z" fill="url(#paint0_linear)"/>
<path d="M272.005 267.818C271.357 266.922 271.557 265.67 272.453 265.022L279.378 260.005C280.274 259.357 281.526 259.557 282.175 260.452L282.526 260.938L292.17 274.252L293.058 275.477C293.706 276.373 293.506 277.625 292.61 278.274L285.685 283.29C284.789 283.939 283.537 283.739 282.888 282.843L282.001 281.618L272.357 268.303L272.005 267.818Z" stroke="#F8498F" stroke-width="1.18973"/>
<path d="M1137.58 205.301C1137.58 205.294 1137.59 205.287 1137.59 205.28C1138.45 203.79 1137.98 201.892 1136.52 201.049L1135.81 200.631L1143.49 194.661C1144.84 193.607 1145.12 191.652 1144.11 190.302C1143.1 188.953 1141.17 188.713 1139.82 189.767L1135.02 193.503L1135.88 187.48C1136.12 185.781 1134.96 184.229 1133.29 184.02C1131.61 183.812 1130.06 185.024 1129.81 186.723L1129.06 191.956C1128.77 191.962 1128.48 192.009 1128.2 192.096C1128.03 191.293 1127.54 190.569 1126.78 190.13C1125.33 189.287 1123.44 189.814 1122.58 191.304L1119.15 197.207C1116.31 202.1 1117.88 208.333 1122.65 211.101C1127.42 213.869 1133.61 212.14 1136.45 207.247L1137.58 205.301ZM1133.05 185.696C1133.81 185.791 1134.34 186.499 1134.23 187.275L1133.08 195.32C1133.03 195.659 1133.19 195.99 1133.48 196.158C1133.77 196.326 1134.13 196.299 1134.4 196.089L1140.82 191.098C1141.43 190.617 1142.31 190.726 1142.77 191.342C1143.23 191.957 1143.11 192.849 1142.49 193.33L1134.26 199.731L1130.96 197.821L1131.68 196.588C1132.53 195.12 1132.08 193.258 1130.68 192.396L1131.46 186.929C1131.57 186.154 1132.28 185.601 1133.05 185.696ZM1128.33 196.292C1127.9 196.041 1127.43 195.912 1126.96 195.894L1127.85 194.362C1128.24 193.682 1129.1 193.442 1129.76 193.826C1130.42 194.211 1130.64 195.077 1130.25 195.757L1129.53 196.99L1128.33 196.292ZM1124.01 192.135C1124.4 191.456 1125.26 191.215 1125.93 191.6C1126.59 191.985 1126.81 192.851 1126.41 193.53L1124.13 197.466C1123.73 198.145 1122.87 198.385 1122.21 198.001C1121.55 197.616 1121.33 196.75 1121.73 196.071L1124.01 192.135ZM1123.5 209.631C1119.67 207.406 1118.31 202.496 1120.34 198.489C1120.59 198.883 1120.93 199.223 1121.36 199.471C1122.11 199.909 1122.99 199.976 1123.77 199.731C1123.95 200.534 1124.44 201.259 1125.19 201.697L1131.47 205.34C1131.87 205.57 1132.38 205.427 1132.61 205.021C1132.85 204.615 1132.72 204.1 1132.32 203.871L1126.05 200.228C1125.38 199.843 1125.17 198.977 1125.56 198.297C1125.96 197.618 1126.82 197.377 1127.48 197.762L1129.4 198.875C1129.4 198.875 1129.4 198.875 1129.4 198.875L1129.4 198.875C1129.4 198.875 1129.4 198.875 1129.4 198.875L1133.88 201.476C1133.88 201.477 1133.88 201.478 1133.88 201.478C1133.88 201.479 1133.88 201.48 1133.89 201.481L1135.67 202.518C1136.33 202.901 1136.55 203.762 1136.16 204.44C1136.16 204.447 1136.15 204.454 1136.15 204.461L1135.02 206.416C1132.65 210.499 1127.48 211.941 1123.5 209.631Z" fill="#F8498F"/>
<path d="M601.669 325.93C596.439 321.321 588.288 321.992 583.499 327.426C580.743 330.553 579.59 334.722 580.353 338.695L579.627 339.518C578.572 339.537 577.514 339.993 576.747 340.863C576.071 341.629 575.743 342.58 575.752 343.512C574.826 343.62 573.925 344.065 573.249 344.831C572.099 346.137 571.954 347.976 572.772 349.35C571.093 351.995 571.471 355.485 573.807 357.544C576.143 359.603 579.653 359.539 582.066 357.541C583.531 358.179 585.339 357.805 586.489 356.499C587.164 355.733 587.492 354.783 587.483 353.85C588.409 353.742 589.311 353.297 589.986 352.531C590.753 351.661 591.072 350.553 590.958 349.504L591.683 348.681C595.721 348.938 599.712 347.27 602.468 344.143C607.257 338.709 606.898 330.539 601.669 325.93ZM588.118 349.005C588.679 349.5 588.718 350.377 588.204 350.96C587.689 351.543 586.814 351.616 586.253 351.121L578.615 344.389C578.053 343.894 578.015 343.017 578.529 342.434C579.043 341.851 579.918 341.778 580.48 342.273L588.118 349.005ZM575.439 355.691C574.136 354.542 573.813 352.677 574.515 351.118L580.093 356.033C578.635 356.926 576.743 356.84 575.439 355.691ZM582.756 355.089L575.118 348.357C574.556 347.863 574.518 346.985 575.032 346.402C575.546 345.819 576.421 345.747 576.982 346.242L584.62 352.973C585.182 353.468 585.22 354.345 584.706 354.928C584.192 355.512 583.317 355.584 582.756 355.089ZM591.397 346.21C590.998 346.164 590.595 346.322 590.323 346.631L589.812 347.21C589.791 347.191 589.771 347.171 589.75 347.152L588.732 346.255L591.949 342.605L594.401 342.403C595.068 342.348 595.585 341.762 595.555 341.093C595.526 340.424 594.962 339.927 594.295 339.982L591.343 340.225C591.023 340.252 590.721 340.404 590.504 340.65L586.949 344.684L584.913 342.889L588.468 338.855C588.685 338.61 588.798 338.291 588.784 337.97L588.654 335.011C588.625 334.343 588.061 333.845 587.394 333.9C586.727 333.955 586.21 334.541 586.239 335.21L586.347 337.668L583.13 341.318L582.112 340.421C582.091 340.402 582.069 340.385 582.047 340.367L582.558 339.787C582.83 339.478 582.936 339.059 582.84 338.669C582.011 335.289 582.924 331.673 585.282 328.997C589.171 324.584 595.79 324.04 600.036 327.782C604.283 331.525 604.574 338.159 600.685 342.572C598.326 345.248 594.854 346.608 591.397 346.21Z" fill="#4AA9E7"/>
<path d="M581.719 325.199C582.232 324.617 582.192 323.744 581.63 323.248L579.45 321.327C578.888 320.831 578.016 320.902 577.503 321.484C576.99 322.066 577.03 322.939 577.592 323.435L579.772 325.356C580.334 325.852 581.206 325.781 581.719 325.199Z" fill="#4AA9E7"/>
<path d="M609.03 347.395L606.85 345.473C606.288 344.978 605.416 345.048 604.903 345.63C604.39 346.212 604.43 347.086 604.992 347.581L607.172 349.503C607.734 349.998 608.606 349.928 609.119 349.346C609.632 348.763 609.592 347.89 609.03 347.395Z" fill="#4AA9E7"/>
<path d="M577.381 331.064L574.056 330.747C573.199 330.665 572.28 331.347 572.003 332.269C571.818 332.888 571.969 333.458 572.347 333.791C572.532 333.954 572.772 334.061 573.054 334.088L576.379 334.406C577.236 334.488 578.155 333.806 578.432 332.883C578.708 331.961 578.238 331.146 577.381 331.064Z" fill="#4AA9E7"/>
<path d="M608.533 339.469C608.719 339.633 608.933 339.769 609.16 339.858L611.837 340.911C612.526 341.182 613.076 340.92 613.063 340.326C613.05 339.731 612.481 339.03 611.791 338.759L609.114 337.706C608.424 337.434 607.875 337.696 607.888 338.29C607.896 338.689 608.155 339.136 608.533 339.469Z" fill="#4AA9E7"/>
<path d="M600.361 353.93L599.628 350.672C599.439 349.832 598.572 349.467 597.691 349.858C596.811 350.248 596.25 351.246 596.439 352.086L597.172 355.344C597.234 355.62 597.37 355.845 597.556 356.009C597.933 356.342 598.518 356.42 599.109 356.158C599.989 355.767 600.55 354.77 600.361 353.93Z" fill="#4AA9E7"/>
<path d="M589.051 320.024L587.67 317.502C587.314 316.851 586.547 316.374 585.955 316.437C585.364 316.499 585.173 317.076 585.529 317.727L586.91 320.25C587.027 320.464 587.189 320.659 587.375 320.822C587.753 321.156 588.229 321.356 588.625 321.315C589.217 321.253 589.407 320.675 589.051 320.024Z" fill="#4AA9E7"/>
<rect x="561" y="303" width="182" height="4" rx="2" fill="#F8498F"/>
<rect x="561" y="303" width="182" height="4" rx="2" fill="#F8498F"/>
<rect width="8" height="4" rx="2" transform="matrix(-1 0 0 1 760 303)" fill="#F8498F"/>
<rect width="8" height="4" rx="2" transform="matrix(-1 0 0 1 760 303)" fill="#F8498F"/>
<rect width="37" height="4" rx="2" transform="matrix(-1 0 0 1 806 303)" fill="#F8498F"/>
<rect width="37" height="4" rx="2" transform="matrix(-1 0 0 1 806 303)" fill="#F8498F"/>
<path d="M993.188 202.546L996.14 176.398" stroke="#F8498F" stroke-width="4" stroke-linecap="round" stroke-linejoin="round"/>
<path d="M1001.99 204.062L1020.32 186.224" stroke="#F8498F" stroke-width="4" stroke-linecap="round" stroke-linejoin="round"/>
<path d="M1005.42 213.008L1028.89 210.069" stroke="#F8498F" stroke-width="4" stroke-linecap="round" stroke-linejoin="round"/>
<circle cx="326" cy="137.641" r="4" fill="#8C77CD"/>
<circle cx="888" cy="266.641" r="4" fill="#FE5482"/>
<circle cx="437" cy="171.641" r="4" fill="#FE5482"/>
<path d="M292 235.141C292 240.94 296.701 245.641 302.5 245.641C308.299 245.641 313 240.94 313 235.141C313 229.342 308.299 224.641 302.5 224.641" stroke="#58E3AD" stroke-width="4"/>
<path d="M895.715 121.813C900.04 126.138 907.086 126.104 911.453 121.738C915.82 117.371 915.854 110.325 911.529 106" stroke="#8C77CD" stroke-width="4"/>
<path d="M1223 294.78C1231.69 303.472 1245.85 303.404 1254.63 294.628C1263.4 285.852 1263.47 271.692 1254.78 263" stroke="#8C77CD" stroke-width="4"/>
<rect y="2.81477" width="16.7376" height="16.7376" transform="matrix(0.710505 0.703692 -0.710505 0.703692 999.734 247.307)" stroke="#58E3AD" stroke-width="4"/>
<rect y="2.81477" width="31.3187" height="31.3187" transform="matrix(0.710505 0.703692 -0.710505 0.703692 148.914 236.443)" stroke="#FE5482" stroke-width="4"/>
<path d="M215 172L222.952 164L230.904 172L238.855 164L246.807 172L254.759 164L262.711 172L270 164.667" stroke="#58E3AD" stroke-width="4"/>
<path d="M430.082 304.093L430.082 326.446L410.724 315.27L430.082 304.093Z" stroke="#8C77CD" stroke-width="4"/>
<circle cx="780" cy="92" r="4" fill="#FE5482"/>
<circle cx="801.083" cy="92" r="4" fill="#6468C3"/>
<circle cx="822.166" cy="92" r="4" fill="#663B97"/>
<circle cx="843.25" cy="92" r="4" fill="#58E3AD"/>
<circle cx="780" cy="113.083" r="4" fill="#FE5482"/>
<circle cx="801.083" cy="113.083" r="4" fill="#6468C3"/>
<circle cx="822.166" cy="113.083" r="4" fill="#663B97"/>
<circle cx="843.25" cy="113.083" r="4" fill="#58E3AD"/>
<circle cx="780" cy="134.167" r="4" fill="#FE5482"/>
<circle cx="801.083" cy="134.167" r="4" fill="#6468C3"/>
<circle cx="822.166" cy="134.167" r="4" fill="#663B97"/>
<circle cx="843.25" cy="134.167" r="4" fill="#58E3AD"/>
<circle cx="780" cy="155.25" r="4" fill="#FE5482"/>
<circle cx="801.083" cy="155.25" r="4" fill="#6468C3"/>
<circle cx="822.166" cy="155.25" r="4" fill="#663B97"/>
<circle cx="843.25" cy="155.25" r="4" fill="#6468C3"/>
<path d="M742 321.392C751.773 341.204 775.757 349.342 795.569 339.569C815.381 329.795 823.519 305.812 813.745 286" stroke="#663B97" stroke-width="6"/>
<circle cx="803.64" cy="335.587" r="12" transform="rotate(63.743 803.64 335.587)" fill="#FE5482"/>
</g>
<defs>
<linearGradient id="paint0_linear" x1="-2160" y1="72.1999" x2="1395" y2="280.7" gradientUnits="userSpaceOnUse">
<stop stop-color="#F8498F"/>
<stop offset="1" stop-color="#531F8F"/>
</linearGradient>
</defs>
</svg>
