<svg width="395" height="124" viewBox="0 0 395 124" fill="none" xmlns="http://www.w3.org/2000/svg">
<path d="M136.736 81.3938C119.482 122.73 86.3536 124.403 76.1983 122.533C70.184 121.352 59.2399 118.052 48 108.014C60.1272 112.639 70.184 112.298 75.7053 111.609C82.4098 110.723 97.9573 105.351 109 89.0137C117.282 82.7148 124.986 73.4677 131 59C132.38 55.6537 133.507 52.0647 134 49.0137C139.916 57.2809 142.356 67.8118 136.736 81.3938Z" fill="#C3B1D8"/>
<path d="M134 49.0137C133.508 52.0796 132.622 55.0906 131.146 58.5521C125.142 73.0906 117.169 82.684 109 89.0137C114.709 80.5082 119.138 69.0357 120.319 53.706C120.909 46.1895 120.362 38.9587 118 34.0137C124.398 37.5741 129.866 43.2774 134 49.0137Z" fill="#8662B1"/>
<path d="M134 49.0135C129.836 43.2218 124.444 37.6083 118 34.0135C106.401 8.84959 65.1073 12.403 54.5 14.5C37.3498 17.995 23.9221 23.523 15 30.0137C16.3879 8.24491 38.4948 -3.81071 80.1311 1.08227C92.0271 2.48026 139.552 14.6628 134 49.0135Z" fill="#C3B1D8"/>
<path d="M48 108.014C37.5324 104.039 25.37 96.6863 13.2076 83.471C-4.83658 63.7971 -4.53749 44.0239 15.0021 30.0137C14.6033 36.9691 16.0123 45.2561 20 54C20 53.9006 20 54.0994 20 54C19.7009 60.7567 21.7117 68.7529 25.5 77C32.0796 91.4076 40.2241 101.058 48 108.014Z" fill="#C3B1D8"/>
<path d="M109 89.0137C97.9161 105.4 82.1809 110.775 75.3524 111.663C69.8105 112.354 60.2715 112.653 48 108.014C40.2808 101.104 31.9075 90.933 25.2769 76.6193C21.5163 68.3273 19.735 60.7263 20.0318 54.0137C36.1629 89.0574 60.31 97.9417 70.5032 99.8173C77.1338 101.002 93.5617 100.761 109 89.0137Z" fill="#8662B1"/>
<path d="M118 34.0137C105 27.5137 91.2467 25.1201 85.5001 24.5137C43.3913 19.4606 20.8918 31.4771 20.0001 54.0138C19.9491 53.9006 20.0018 53.9709 20.0001 54.0138C16.0369 45.2215 14.6037 37.1891 15 30.0137C23.9172 23.4447 36.953 17.9348 54.0938 14.3977C64.8934 12.2754 106.408 8.54614 118 34.0137Z" fill="#8662B1"/>
<path d="M120.436 53.2906C119.243 68.8005 114.768 80.4078 109 89.0133C93.4862 100.921 76.7597 101.688 70.0967 100.488C59.953 98.5864 36.2099 89.5362 20 54.0137C20.895 31.6995 42.6685 18.5686 85.0332 23.5718C90.8011 24.2722 105.47 27.1093 118 34.0137C120.387 39.1169 121.033 45.6858 120.436 53.2906Z" fill="#531F8F"/>
<path d="M161 44H166.088L175.551 71.9014L184.912 44H190L177.789 79H173.211L161 44Z" fill="#531F8F"/>
<path d="M192 49.1094C192 47.304 193.258 46 195 46C196.742 46 198 47.4043 198 49.1094C198 50.8146 196.742 52.2188 195 52.2188C193.258 52.2188 192 50.8146 192 49.1094ZM192.968 55.6292H197.226V79H192.968V55.6292Z" fill="#531F8F"/>
<path d="M205.097 55.4051H209.366V60.7721C210.336 56.7215 213.246 55 215.963 55C216.739 55 217.515 55.1013 218 55.2025V59.3544C217.224 59.1519 216.739 59.1519 215.866 59.1519C211.403 59.1519 209.269 63.4051 209.269 68.6709V79H205V55.4051H205.097Z" fill="#531F8F"/>
<path d="M220 67.0483C220 60.2895 224.364 55 231.504 55C235.174 55 238.149 56.7632 239.636 59.6038V55.5877H244V78.4109H239.636V74.3948C238.149 77.2355 234.876 78.9987 231.405 78.9987C224.066 79.0966 220 73.8071 220 67.0483ZM239.835 67.0483C239.835 62.6404 237.058 58.8202 232 58.8202C227.24 58.8202 224.264 62.2486 224.264 67.0483C224.264 71.7501 227.24 75.1785 232 75.1785C237.058 75.1785 239.835 71.4562 239.835 67.0483Z" fill="#531F8F"/>
<path d="M251 44H255.2V79H251V44Z" fill="#531F8F"/>
<path d="M259 44H263.86L272.884 71.507L281.314 44H284.785L293.116 71.507L302.14 44H307L294.901 79H291.529L283 51.9859L274.471 79H271.099L259 44Z" fill="#531F8F"/>
<path d="M336.105 55.4051H340.701V60.7721C341.746 56.7215 344.881 55 347.806 55C348.642 55 349.478 55.1013 350 55.2025V59.3544C349.164 59.1519 348.642 59.1519 347.701 59.1519C342.896 59.1519 340.597 63.4051 340.597 68.6709V79H336V55.4051H336.105Z" fill="#531F8F"/>
<path d="M363.922 67.0704L375 79H369.314L359.314 68.1549V79H355V44H359.314V66.3803L369.412 55.9296H375L363.922 67.0704Z" fill="#531F8F"/>
<path d="M376 71.5551H380.447C380.447 73.8082 382.569 75.5714 386.106 75.5714C388.734 75.5714 390.452 74.298 390.452 72.2408C390.452 70.9673 389.846 69.6939 388.128 69.302L381.862 67.7347C378.324 66.7551 376.808 64.502 376.808 61.5633C376.808 57.8408 380.346 55 385.702 55C391.564 55 394.798 57.8408 394.798 61.8571H390.351C390.351 59.702 388.532 58.3306 385.5 58.3306C383.074 58.3306 381.255 59.4082 381.255 61.3673C381.255 62.7388 381.963 63.8163 383.883 64.3061L389.745 65.8735C393.08 66.7551 395 69.1061 395 71.849C395 76.1592 391.665 79 385.904 79C379.739 79 376 75.5714 376 71.5551Z" fill="#531F8F"/>
<path d="M319 55C312.366 55 307 60.3658 307 67C307 73.6341 312.366 79 319 79C325.634 79 331 73.6341 331 67C331 60.3658 325.634 55 319 55ZM319 75C314.61 75 311 71.3902 311 67C311 62.6098 314.61 59 319 59C323.39 59 327 62.6098 327 67C327 71.3902 323.488 75 319 75Z" fill="#531F8F"/>
</svg>
